# xmcd
#
# Track frame offsets: 
#        182
#        30305
#        53597
#        83182
#        112757
#        131270
#        160997
#        186942
#        209932
#
# Disc length: 3049 seconds
#
# Revision: 2
# Processed by: cddbd v1.5.2PL0 Copyright (c) Steve Scherf et al.
# Submitted via: ExactAudioCopy v0.95a5
#
DISCID=700be709
DTITLE=Jeff Beal - Perpetual Motion
DYEAR=1989
DGENRE=Jazz
TTITLE0=Exit Only
TTITLE1=Crossing The River
TTITLE2=Meshugenah Man
TTITLE3=Ask Me Again
TTITLE4=The Painted Ladies
TTITLE5=Zarzuela
TTITLE6=Round A 'bout
TTITLE7=Coast
TTITLE8=City of Light
EXTD=YEAR: 1989
EXTT0=
EXTT1=
EXTT2=
EXTT3=
EXTT4=
EXTT5=
EXTT6=
EXTT7=
EXTT8=
PLAYORDER=
